# xmcd
#
# Track frame offsets: 
#        150
#        17643
#        32911
#        49710
#        68440
#        86482
#        102975
#        116201
#        136588
#        151555
#        168359
#        192586
#
# Disc length: 2655 seconds
#
# Revision: 7
# Processed by: cddbd v1.5.2PL0 Copyright (c) Steve Scherf et al.
# Submitted via: ExactAudioCopyFreeDBPlugin 1.0
#
DISCID=900a5d0c
DTITLE=Dierks Bentley - Long Trip Alone
DYEAR=2006
DGENRE=Country
TTITLE0=Every Mile A Memory
TTITLE1=Can't Live It Down
TTITLE2=Long Trip Alone
TTITLE3=That Don't Make It Easy Loving Me
TTITLE4=Soon As You Can
TTITLE5=Trying To Stop Your Leaving
TTITLE6=Hope For Me Yet
TTITLE7=The Heaven I'm Headed To
TTITLE8=Free And Easy (Down The Road I Go)
TTITLE9=Band Of Brothers
TTITLE10=Prodigal Son's Prayer ft. The Grascals
TTITLE11=DATA
EXTD=
EXTT0=
EXTT1=
EXTT2=
EXTT3=
EXTT4=
EXTT5=
EXTT6=
EXTT7=
EXTT8=
EXTT9=
EXTT10=
EXTT11=
PLAYORDER=
